<?xml version="1.0" standalone="no"?>
<!DOCTYPE svg PUBLIC "-//W3C//DTD SVG 20010904//EN"
 "http://www.w3.org/TR/2001/REC-SVG-20010904/DTD/svg10.dtd">
<svg version="1.0" xmlns="http://www.w3.org/2000/svg"
 width="1024.000000pt" height="1024.000000pt" viewBox="0 0 1024.000000 1024.000000"
 preserveAspectRatio="xMidYMid meet">
<metadata>
Created by potrace 1.11, written by Peter Selinger 2001-2013
</metadata>
<g transform="translate(0.000000,1024.000000) scale(0.100000,-0.100000)"
fill="#000000" stroke="none">
<path d="M1065 10224 c-473 -83 -865 -426 -1008 -880 -59 -188 -57 -110 -57
-1984 0 -1874 -2 -1796 57 -1984 124 -394 445 -715 839 -839 184 -58 163 -57
1446 -57 l1178 0 -2 -312 -3 -311 -580 -363 c-406 -254 -591 -375 -617 -404
-103 -116 -103 -304 0 -420 26 -29 211 -150 617 -404 l580 -363 5 -404 c6
-428 9 -459 62 -619 126 -385 447 -701 834 -823 191 -60 62 -57 2464 -57 2402
0 2273 -3 2464 57 394 124 715 445 839 839 59 188 57 110 57 1984 0 1874 2
1796 -57 1984 -124 394 -445 715 -839 839 -184 58 -163 57 -1446 57 l-1178 0
2 312 3 311 580 363 c406 254 591 375 617 404 103 116 103 304 0 420 -26 29
-211 150 -617 404 l-580 363 -5 404 c-6 428 -9 459 -62 619 -126 385 -447 701
-834 823 -191 60 -61 57 -2473 56 -1849 -1 -2219 -3 -2286 -15z m4565 -651
c196 -67 357 -228 422 -423 21 -62 22 -85 28 -570 5 -499 5 -506 28 -550 12
-25 35 -61 51 -80 18 -22 192 -137 470 -310 242 -151 441 -277 441 -280 0 -3
-199 -129 -443 -281 -376 -235 -447 -283 -478 -324 -68 -89 -69 -94 -69 -604
0 -518 -3 -543 -72 -681 -74 -148 -220 -271 -383 -323 l-70 -22 -2195 0 -2195
0 -70 22 c-196 62 -360 224 -428 423 l-22 65 -3 1692 c-3 1856 -5 1767 56
1897 65 137 169 243 307 312 135 67 -22 63 2380 61 l2180 -2 65 -22z m3520
-4480 c199 -68 361 -232 423 -428 l22 -70 0 -1715 0 -1715 -22 -70 c-63 -199
-229 -365 -428 -428 l-70 -22 -2195 0 -2195 0 -70 22 c-196 62 -361 225 -427
423 -21 62 -22 85 -28 570 -5 499 -5 506 -28 550 -12 25 -35 61 -51 80 -18 22
-192 137 -470 310 -242 151 -441 277 -441 280 0 3 199 129 443 281 376 235
447 283 478 324 68 88 69 98 69 571 l0 423 733 4 c702 3 735 4 817 24 184 46
357 124 489 223 98 73 243 225 305 318 l48 72 1266 -2 1267 -3 65 -22z"/>
<path d="M3293 8716 c-226 -43 -401 -142 -574 -324 -284 -298 -429 -685 -429
-1143 0 -670 253 -1036 770 -1114 253 -39 487 -2 697 110 150 79 335 241 368
320 19 43 19 116 2 158 -46 109 -170 166 -260 121 -18 -9 -82 -65 -144 -125
-177 -171 -263 -217 -423 -226 -291 -16 -495 139 -569 433 -19 75 -47 321 -38
330 2 2 62 -1 133 -7 290 -26 665 10 1084 102 330 73 393 106 457 244 26 57
28 68 28 195 -1 263 -79 472 -246 654 -113 123 -269 217 -429 256 -110 27
-324 35 -427 16z m320 -371 c87 -22 136 -51 202 -119 97 -99 160 -249 172
-412 l6 -71 -149 -31 c-372 -79 -520 -96 -831 -97 -192 0 -255 3 -265 13 -10
10 -8 25 11 80 119 345 343 579 608 636 90 19 176 19 246 1z"/>
<path d="M6345 4248 c-3 -13 -13 -60 -23 -105 l-19 -81 91 -7 c357 -26 874
-106 1156 -179 l90 -23 16 56 c9 31 22 78 29 104 17 58 31 51 -185 100 -279
65 -595 113 -925 142 -225 20 -224 20 -230 -7z"/>
<path d="M7538 3544 c-29 -15 -281 -35 -763 -59 -314 -15 -760 -35 -808 -35
l-28 0 6 -72 c15 -191 17 -195 50 -161 15 14 65 20 329 34 171 10 456 28 634
39 178 12 325 20 328 18 2 -3 -231 -235 -519 -516 -287 -281 -642 -632 -790
-779 l-267 -268 82 -82 83 -82 180 190 c246 260 477 485 556 542 83 59 233
130 320 151 138 34 225 14 263 -60 19 -36 21 -58 22 -269 1 -192 4 -238 19
-279 48 -138 155 -227 314 -262 124 -28 720 -28 748 0 3 3 2 53 -2 112 l-7
106 -27 -6 c-14 -3 -117 -11 -228 -18 -326 -20 -472 4 -542 88 -50 62 -56 97
-56 349 0 213 -2 233 -21 276 -47 100 -124 157 -226 166 -73 7 -196 -12 -270
-42 -32 -13 -58 -22 -58 -20 0 2 181 174 402 382 279 263 410 380 430 384 55
12 51 23 -40 106 -85 78 -89 80 -114 67z"/>
</g>
</svg>
